<?xml version="1.0" encoding="UTF-8"?>
<svg id="_Слой_2" data-name="Слой 2" xmlns="http://www.w3.org/2000/svg" viewBox="0 0 100.501 18.086">
  <defs>
    <style>
      .cls-energy {
        fill: #111;
      }
    </style>
  </defs>
  <g id="Layer_1" data-name="Layer 1">
    <g>
      <path class="cls-energy" d="M1.224,16.577c-.816-1.005-1.224-2.456-1.224-4.353V5.884C0,3.945,.404,2.48,1.213,1.487,2.021,.497,3.403,0,5.358,0c1.866,0,3.19,.442,3.969,1.325,.779,.883,1.169,2.135,1.169,3.756v1.52h-3.859v-1.758c0-.68-.074-1.201-.221-1.563-.147-.362-.5-.543-1.058-.543s-.926,.192-1.103,.576c-.176,.383-.265,.915-.265,1.596V13.179c0,.694,.092,1.227,.276,1.596,.184,.369,.547,.554,1.091,.554s.893-.185,1.048-.554c.154-.369,.231-.902,.231-1.596v-1.846h3.859v1.52c0,1.65-.39,2.934-1.169,3.854-.779,.92-2.103,1.378-3.969,1.378-1.94,0-3.318-.503-4.134-1.509Z"/>
      <path class="cls-energy" d="M15.197,.239h4.496l3.331,17.586h-3.64l-.596-3.712h-2.622l-.619,3.712h-3.725L15.197,.239Zm3.218,11.55l-.947-6.861-.949,6.861h1.896Z"/>
      <path class="cls-energy" d="M25.751,3.127h-2.691V.239h9.327V3.127h-2.668v14.698h-3.968V3.127Z"/>
      <path class="cls-energy" d="M39.532,.239h6.924v1.824h-4.432V7.882h3.594v1.737h-3.594v6.448h4.476v1.758h-6.967V.239Z"/>
      <path class="cls-energy" d="M48.488,.239h1.698l5.072,11.681V.239h2.073V17.825h-1.587l-5.138-12.007v12.007h-2.116V.239Z"/>
      <path class="cls-energy" d="M59.812,.239h6.924v1.824h-4.432V7.882h3.594v1.737h-3.594v6.448h4.476v1.758h-6.967V.239Z"/>
      <path class="cls-energy" d="M68.769,.239h3.594c1.808,0,3.135,.365,3.98,1.096s1.268,1.922,1.268,3.572c0,2.258-.736,3.625-2.205,4.103l2.535,8.815h-2.402l-2.337-8.251h-1.941v8.251h-2.491V.239Zm3.439,7.577c1.073,0,1.841-.21,2.304-.63,.464-.42,.695-1.179,.695-2.279,0-.724-.081-1.292-.243-1.704s-.448-.717-.859-.912c-.412-.195-.993-.293-1.743-.293h-1.102V7.816h.948Z"/>
      <path class="cls-energy" d="M80.812,16.533c-.721-1.006-1.081-2.5-1.081-4.483V6.167c0-1.361,.144-2.479,.431-3.355,.286-.875,.779-1.548,1.477-2.019,.697-.47,1.657-.706,2.877-.706,1.646,0,2.833,.412,3.561,1.237,.727,.825,1.091,2.121,1.091,3.887v.651h-2.337v-.542c0-.84-.052-1.487-.154-1.944-.104-.456-.32-.799-.651-1.03-.331-.232-.819-.348-1.466-.348-.691,0-1.205,.156-1.543,.467s-.555,.727-.65,1.248-.144,1.216-.144,2.085v6.513c0,1.347,.166,2.313,.496,2.898,.331,.586,.967,.88,1.908,.88,.926,0,1.562-.319,1.908-.956,.345-.636,.518-1.657,.518-3.061v-1.216h-2.272v-1.737h4.52v8.706h-1.565l-.243-2.019c-.559,1.49-1.617,2.236-3.175,2.236-1.617,0-2.786-.503-3.506-1.509Z"/>
      <path class="cls-energy" d="M94.282,11.616L90.424,.239h2.316l2.733,8.489L98.164,.239h2.337l-3.837,11.377v6.209h-2.382v-6.209Z"/>
    </g>
  </g>
</svg>
