<?xml version="1.0" encoding="UTF-8"?>
<svg id="_Слой_2" data-name="Слой 2" xmlns="http://www.w3.org/2000/svg" viewBox="0 0 10 19">
  <g id="Layer_1" data-name="Layer 1">
    <path fill="currentColor" d="M7.051,19H2.008V10.165H0V5.8H1.945c-.149-1.977,.22-3.424,1.124-4.412C3.837,.546,4.979,.079,6.462,0h3.538s0,4.21,0,4.21h-2.778c-.123,.216-.186,.748-.186,1.589h2.943v4.365h-2.928v8.835Zm-3.933-1.027h2.823V9.137h2.927v-2.31h-2.924l-.012-.503c-.033-1.397,.001-2.591,.745-3.054l.141-.087h2.072V1.027h-2.396c-1.152,.062-2.005,.398-2.578,1.024-.77,.843-1.043,2.258-.813,4.207l.068,.57H1.11v2.311H3.118v8.834Z"/>
  </g>
</svg>
