<?xml version="1.0" encoding="UTF-8"?>
<svg id="_Слой_2" data-name="Слой 2" xmlns="http://www.w3.org/2000/svg" viewBox="0 0 26.945 34.09">
  <g id="Layer_1" data-name="Layer 1">
    <path d="M13.62,.017l-.147-.017L0,1.412V26.073l13.474,8.017,13.43-7.99,.042-.024V1.412L13.62,.017Zm11.399,12.11L13.495,5.334v-.104s-.088,.05-.088,.05l-.088-.056v.109L1.925,12.118V3.147L13.474,1.935l11.547,1.212V12.127h0ZM13.405,6.787l11.518,6.713-4.478,2.64-7.093-4.221-.015,1.415,5.904,3.513-.86,.507-5.029-2.992-.015,1.415,3.827,2.275-.782,.524-3.03-1.787-.015,1.413,1.854,1.091-1.8,1.081L2.034,13.622,13.405,6.787ZM1.925,15.127l11.411,6.791,.017,1.044-7.942-4.727-.015,1.416,7.978,4.795,.019,1.076-7.974-4.74-.013,1.414,8.02,4.822,.047,.024,8.142-4.872-.011-5.177,3.415-2.036v10.022l-11.548,6.871L1.925,24.978V15.127Z"/>
  </g>
</svg>