<?xml version="1.0" encoding="UTF-8"?>
<svg id="_Слой_2" data-name="Слой 2" xmlns="http://www.w3.org/2000/svg" viewBox="0 0 16 16.009">
  <defs>
    <style>
      .cls-1 {
        fill: #231f20;
      }
    </style>
  </defs>
  <g id="Layer_1" data-name="Layer 1">
    <path class="cls-1" d="M11.825,1.043c1.726,0,3.131,1.406,3.131,3.133v7.657c0,1.727-1.405,3.132-3.131,3.132H4.174c-1.726,0-3.131-1.405-3.131-3.132V4.176c0-1.727,1.405-3.132,3.131-3.132h7.651m0-1.044H4.174C1.877,0,0,1.879,0,4.176v7.657c0,2.296,1.877,4.176,4.174,4.176h7.653c2.294,0,4.173-1.88,4.173-4.177V4.176c0-2.298-1.879-4.176-4.175-4.176h0Z"/>
    <path class="cls-1" d="M8,4.927c1.698,0,3.083,1.382,3.083,3.082s-1.384,3.083-3.083,3.083-3.082-1.384-3.082-3.083c0-1.7,1.382-3.082,3.082-3.082m0-1.044c-2.278,0-4.126,1.847-4.126,4.126s1.847,4.125,4.126,4.125,4.125-1.847,4.125-4.125-1.846-4.126-4.125-4.126h0Z"/>
    <circle class="cls-1" cx="12.273" cy="3.744" r=".933"/>
  </g>
</svg>