<?xml version="1.0" encoding="UTF-8"?>
<svg id="_Слой_2" data-name="Слой 2" xmlns="http://www.w3.org/2000/svg" viewBox="0 0 201.991 59.48">
  <defs>
    <style>
      .logo-dsk-1 {
        fill: #f06351;
      }

      .logo-dsk-2 {
        fill: #e55645;
      }

      .logo-dsk-3 {
        fill: #111;
      }

      .logo-dsk-4 {
        fill: #444;
      }

      .logo-dsk-5 {
        fill: #fdc305;
      }
    </style>
  </defs>
  <g id="Layer_1" data-name="Layer 1">
    <path class="logo-dsk-5" d="M59.884,23.995c-5.452-13.05-20.45-19.209-33.5-13.757C13.335,15.69,7.175,30.688,12.627,43.738c3.586,8.584,11.303,14.186,19.88,15.464-.579-2.09-1.162-4.4-1.692-6.855,1.499,.992,3.089,1.805,4.769,2.555-.007,.003-.013,.007-.02,.01,0,0,.118,2.156,.279,4.565,1.773,.029,3.565-.126,5.347-.478-.042-.158-.043-.405,.012-.762,.286-1.862,1.093-5.236,1.248-7.407,1.129-1.064,2.138-2.325,2.9-3.713-.001,.012-.003,.024-.004,.036-.017,.144-.036,.288-.054,.433-.554,4.265-1.704,8.814-2.403,10.072-.243,.437-.546,.858-.83,1.153,1.368-.32,2.729-.757,4.068-1.317,13.05-5.452,19.209-20.45,13.757-33.5Zm-1.478,3.786c-.434,.434-1.349,.723-1.494-.578s-.193-2.217-.193-2.217c0,0-1.928-3.421-2.65-3.47-.723-.048-5.831,3.47-7.18,4.964-1.165,1.289-1.398,1.205-1.398,3.47,0,1.713,.22,8.167,.099,13.108h0s-2.171,.578-8.146,2.168c-5.976,1.59-7.807,1.783-7.807,1.783l-1.012-5.831s0,0-.002,0c-.005,0-.019-.003-.04-.007,0,0-.002,0-.002,0-.01-.002-.022-.003-.035-.005-.014-.002-.031-.004-.049-.006,0,0,0,0,0,0l-2.57-13.185s-3.807-1.446-5.204-1.831c-1.398-.386-2.265-.675-4.048,.626-1.783,1.301-1.735,3.855-1.735,3.855,0,0,.434,.964,.482,1.446,.048,.482-1.205,.434-2.024,.434s-.916-1.446-.289-3.132c.626-1.687,1.928-3.711,1.928-3.711,0,0,1.205-2.265,2.072-2.891,0,0,.145-.337,1.253-.241,1.108,.096,7.277,.434,7.277,.434l.053-2.275c6.693-.912,13.49-1.374,20.244-1.336-.01,.608-.029,1.218-.058,1.828,0,0,4.385-2.024,8.144-1.976,0,0,.434-.048,.771,.386,.337,.434,2.409,2.988,2.65,3.373,.241,.386,1.205,1.735,1.831,3.036,0,0-.434,1.349-.867,1.783Z"/>
    <path class="logo-dsk-1" d="M56.455,21.673c.474,.598,.887,1.129,.987,1.288,.241,.386,1.205,1.735,1.831,3.036,0,0-.434,1.349-.867,1.783s-1.349,.723-1.494-.578-.193-2.217-.193-2.217c0,0-1.928-3.421-2.65-3.47-.723-.048-5.831,3.47-7.18,4.964-1.165,1.289-1.398,1.205-1.398,3.47,0,1.502,.169,6.65,.129,11.226,1.809,.209,4.466,.71,5.268,1.882,0,0-.289-7.18,7.807-3.422,0,0,.289-9.783,11.469-7.277,0,0-5.668-6.959-13.709-10.685Z"/>
    <path class="logo-dsk-1" d="M45.935,19.351c.146-8.514-1.407-16.533-1.407-16.533,0,0-.145-1.301-.867-.241-.723,1.06-1.205,3.952-1.205,3.952-7.469-.434-12.818,.337-12.818,.337-.819-2.747-2.217-3.952-2.891-3.662-.675,.289-.723,3.325-.723,3.325l-.332,14.158c6.693-.912,13.49-1.374,20.244-1.336Z"/>
    <path class="logo-dsk-2" d="M45.351,47.117c.127-1.065,.2-2.485,.239-4.06,0,0-2.171,.578-8.146,2.168-5.976,1.59-7.807,1.783-7.807,1.783l1.108,5.012c.023,.109,.047,.217,.07,.326,1.499,.992,3.089,1.805,4.769,2.555,4.373-2.165,6.871-4.134,6.871-4.134-.001,.02-.003,.042-.005,.062,1.129-1.064,2.138-2.325,2.9-3.713Z"/>
    <path d="M31.998,16.215c-.046-.091,1.026,.683,1.412,.924s.612,.425,.612,.594-.265,.337-.626,.337-.916-.12-.964-.265c0,0,.602-.024,.94-.024h.289s-1.398-1.036-1.663-1.566Z"/>
    <path d="M39.501,16.329s-1.051,1.279-1.09,1.338-.166,.342,.186,.294,1.116-.225,1.223-.284,.07-.196-.117-.176c-.205,.022-.685,.049-.988,.108l.844-1.266s.026-.119-.057-.014Z"/>
    <path d="M36.356,22.444s.813-.352,1.093-1.012,.036-.916-.443-.982-1.346-.03-1.744,.34-.343,.732-.054,.958,.849,.605,1.148,.696Z"/>
    <path class="logo-dsk-1" d="M35.95,23.7s-.18,.373-.46,.596c-.244,.194-.569,.365-1.022,.388-.641,.033-1.06-.17-1.457-.447-.204-.142-.397-.256-.535-.444-.158-.183-.357-.254-.357-.254,0,0,.751,4.115,2.576,4.766s2.152-.752,2.209-1.137c.049-.327,0-2.09-.823-3.236-.015-.305-.031-.101-.13-.232Z"/>
    <path d="M34.302,24.837c-.005,0-.011,0-.016,0-1.298-.011-2.3-1.366-2.342-1.424-.047-.064-.033-.155,.032-.202,.064-.047,.155-.033,.202,.032,.009,.013,.96,1.296,2.112,1.305,.004,0,.008,0,.012,0,.587,0,1.136-.334,1.634-.994l.143-.189,.103,.214c.004,.007,.375,.758,.992,.797,.498,.031,1.057-.413,1.622-1.283,.043-.067,.133-.086,.2-.042,.067,.044,.086,.133,.042,.2-.635,.978-1.27,1.453-1.884,1.414-.565-.036-.946-.497-1.122-.767-.522,.624-1.103,.94-1.731,.94Z"/>
    <circle class="logo-dsk-5" cx="36.256" cy="34.547" r="3.75"/>
    <path class="logo-dsk-3" d="M41.233,31.504l-3.133,1.309,1.15-5.636-7.501,9.762,3.133-1.309-1.15,5.636,7.501-9.762Zm-7.388,3.823l4.131-5.408-.807,4.02,1.967-.822-4.131,5.408,.807-4.02-1.967,.822Z"/>
    <circle class="logo-dsk-3" cx="32.437" cy="32.743" r="1.123"/>
    <circle class="logo-dsk-3" cx="38.958" cy="37.135" r=".794"/>
    <circle class="logo-dsk-3" cx="39.922" cy="35.399" r=".348"/>
    <path class="logo-dsk-1" d="M45.877,21.16s-2.554,2.254-5.084,5.212-5.313,4.895-5.313,4.895c-.217-.528-1.626-1.514-1.626-1.514,0,0-3.144-2.148-5.204-3.838-1.184-.972-2.355-2.175-3.138-3.024-.293-.016-1.07-.057-2.014-.109,4.711,6.998,12.019,8.838,12.019,8.838,.867-.141,3.289-1.866,5.096-3.275s4.771-4.543,5.963-5.916c.603-.695,.948-1.425,1.141-1.978-1.114,.384-1.839,.71-1.839,.71Z"/>
    <polygon class="logo-dsk-5" points="65.218 3.498 56.763 12.942 55.544 10.945 63.693 0 65.218 3.498"/>
    <polygon class="logo-dsk-5" points="62.646 17.258 68.195 13.146 67.407 9.413 62.005 14.225 62.646 17.258"/>
    <polygon class="logo-dsk-5" points="59.924 49.366 66.053 52.552 69.063 50.206 62.369 47.461 59.924 49.366"/>
    <polygon class="logo-dsk-5" points="1.953 5.975 5.018 2.614 14.312 11.613 13.087 13.89 1.953 5.975"/>
    <polygon class="logo-dsk-5" points="7.382 16.283 2.68 13.154 .275 17.015 5.43 19.416 7.382 16.283"/>
    <polygon class="logo-dsk-5" points="13.907 52.552 9.36 55.901 12.165 59.48 16.184 55.457 13.907 52.552"/>
    <path class="logo-dsk-1" d="M25.926,27.973s-3.807-1.446-5.204-1.831c-1.398-.386-2.265-.675-4.048,.626-1.783,1.301-1.735,3.855-1.735,3.855,0,0,.434,.964,.482,1.446,.048,.482-1.205,.434-2.024,.434s-.916-1.446-.289-3.132c.626-1.687,1.928-3.711,1.928-3.711C9.59,28.503,0,35.057,0,35.057c0,0,2.94-.289,8.192,.241,5.253,.53,4.964,4.674,4.964,4.674,0,0,3.518-.964,5.638-1.108,2.12-.145,2.265,2.12,2.265,2.12l.53,3.855s.482-.626,2.65-2.361c1.862-1.489,3.886-1.362,4.385-1.301h0l-2.699-13.204Z"/>
    <g>
      <path class="logo-dsk-3" d="M85.657,42.035c-.932-1.199-1.398-2.929-1.398-5.19v-7.507c0-2.313,.462-4.06,1.385-5.242,.924-1.182,2.507-1.773,4.751-1.773,2.14,0,3.654,.522,4.543,1.566,.889,1.044,1.333,2.542,1.333,4.492v1.76h-4.142v-1.941c0-.621-.031-1.121-.091-1.502-.061-.379-.216-.694-.466-.945s-.634-.375-1.151-.375c-.777,0-1.278,.251-1.502,.751-.225,.501-.336,1.234-.336,2.201v9.526c0,.984,.13,1.717,.388,2.201s.742,.725,1.45,.725c.725,0,1.19-.246,1.398-.738,.207-.492,.311-1.22,.311-2.188v-2.045h4.142v1.734c0,2.002-.44,3.551-1.32,4.647-.881,1.096-2.399,1.644-4.556,1.644-2.227,0-3.805-.599-4.738-1.799Z"/>
      <path class="logo-dsk-3" d="M101.914,22.581h4.737l4.039,20.968h-3.935l-.777-4.608h-3.313l-.803,4.608h-4.013l4.065-20.968Zm3.65,13.72l-1.268-8.439-1.242,8.439h2.51Z"/>
      <path class="logo-dsk-3" d="M113.718,25.739h-3.236v-3.158h10.717v3.158h-3.184v17.81h-4.297V25.739Z"/>
      <path class="logo-dsk-4" d="M129.612,22.581h8.128v2.175h-5.204v6.938h4.22v2.071h-4.22v7.688h5.256v2.097h-8.18V22.581Z"/>
      <path class="logo-dsk-4" d="M140.148,22.581h1.993l5.953,13.927v-13.927h2.434v20.968h-1.865l-6.031-14.315v14.315h-2.484V22.581Z"/>
      <path class="logo-dsk-4" d="M153.816,22.581h8.128v2.175h-5.204v6.938h4.22v2.071h-4.22v7.688h5.256v2.097h-8.18V22.581Z"/>
      <path class="logo-dsk-4" d="M164.352,22.581h4.22c2.123,0,3.68,.436,4.672,1.307,.992,.872,1.489,2.291,1.489,4.259,0,2.692-.863,4.323-2.59,4.893l2.977,10.51h-2.822l-2.744-9.837h-2.278v9.837h-2.924V22.581Zm4.038,9.034c1.26,0,2.162-.25,2.705-.751,.543-.5,.816-1.406,.816-2.718,0-.863-.096-1.54-.285-2.032s-.527-.855-1.009-1.087c-.483-.233-1.166-.349-2.045-.349h-1.296v6.938h1.114Z"/>
      <path class="logo-dsk-4" d="M178.666,42.009c-.845-1.199-1.268-2.981-1.268-5.345v-7.015c0-1.622,.169-2.955,.504-4,.337-1.044,.915-1.846,1.735-2.407,.819-.56,1.946-.841,3.378-.841,1.933,0,3.326,.491,4.181,1.475,.855,.984,1.281,2.529,1.281,4.634v.777h-2.744v-.647c0-1.001-.06-1.773-.18-2.317-.122-.543-.376-.953-.764-1.229-.389-.276-.963-.414-1.722-.414-.811,0-1.416,.186-1.811,.557-.397,.371-.652,.867-.764,1.488-.114,.621-.169,1.45-.169,2.485v7.766c0,1.605,.195,2.757,.582,3.456,.389,.699,1.135,1.048,2.24,1.048,1.087,0,1.834-.379,2.24-1.139,.405-.759,.608-1.976,.608-3.65v-1.45h-2.666v-2.071h5.306v10.38h-1.837l-.285-2.407c-.655,1.777-1.899,2.666-3.728,2.666-1.897,0-3.269-.599-4.116-1.799Z"/>
      <path class="logo-dsk-4" d="M194.69,36.146l-4.529-13.564h2.718l3.209,10.122,3.159-10.122h2.744l-4.505,13.564v7.404h-2.796v-7.404Z"/>
    </g>
  </g>
</svg>
