<?xml version="1.0" encoding="UTF-8"?>
<svg id="Layer_2" data-name="Layer 2" xmlns="http://www.w3.org/2000/svg" viewBox="0 0 33.32 37.614">
  <defs>
    <style>
      .cls-1 {
        fill: #f06351;
      }

      .cls-2 {
        fill: #fdc305;
      }
    </style>
  </defs>
  <g id="Layer_2" data-name="Layer 2">
    <g>
      <path class="cls-2" d="M6.071,20.723l.053-2.266c6.666-.909,13.437-1.369,20.165-1.331-.01,.605-.029,1.213-.058,1.821,0,0,2.923-1.349,6.036-1.813-2.367-6.323-8.464-10.825-15.613-10.825C8.33,6.309,1.432,12.411,.188,20.385c2.172,.136,5.883,.338,5.883,.338Z"/>
      <path class="cls-2" d="M27.239,24.227c-1.16,1.284-1.392,1.2-1.392,3.456,0,.908,.028,4.898,.035,9.172,4.484-2.987,7.438-8.088,7.438-13.88,0-1.052-.098-2.08-.285-3.078-1.813,1.064-4.811,3.238-5.797,4.329Z"/>
      <path class="cls-2" d="M6.359,25.715s-3.792-1.44-5.184-1.824c-.427-.118-.805-.227-1.175-.283,.226,6.049,3.674,11.273,8.678,14.006l-2.319-11.898Z"/>
    </g>
    <path class="cls-1" d="M26.295,17.122c.145-8.48-1.402-16.467-1.402-16.467,0,0-.144-1.296-.864-.24-.72,1.056-1.2,3.936-1.2,3.936-7.44-.432-12.768,.336-12.768,.336-.816-2.736-2.208-3.936-2.88-3.648-.672,.288-.72,3.312-.72,3.312l-.331,14.102c6.666-.909,13.437-1.369,20.165-1.331Z"/>
    <path d="M12.413,13.998c-.046-.091,1.022,.681,1.406,.921s.61,.423,.61,.591-.264,.336-.624,.336-.912-.12-.96-.264c0,0,.6-.024,.936-.024h.288s-1.392-1.032-1.656-1.56Z"/>
    <path d="M19.886,14.112s-1.047,1.274-1.086,1.333-.166,.341,.185,.292,1.111-.224,1.218-.283,.069-.196-.117-.175c-.205,.022-.682,.049-.984,.107l.841-1.261s.026-.118-.057-.014Z"/>
    <path d="M16.754,20.202s.81-.351,1.089-1.008,.036-.912-.441-.978-1.341-.03-1.737,.339-.342,.729-.054,.954,.846,.603,1.143,.693Z"/>
    <path class="cls-1" d="M16.349,21.453s-.18,.372-.458,.594c-.243,.194-.567,.364-1.018,.387-.638,.033-1.055-.169-1.451-.445-.203-.141-.395-.255-.533-.442-.157-.182-.356-.253-.356-.253,0,0,.748,4.099,2.566,4.747s2.144-.749,2.2-1.133c.048-.326,0-2.082-.82-3.223-.015-.303-.031-.1-.13-.231Z"/>
    <path d="M14.708,22.586c-.005,0-.011,0-.016,0-1.293-.011-2.291-1.361-2.333-1.418-.047-.064-.033-.154,.032-.201,.064-.047,.154-.033,.201,.031,.009,.013,.956,1.291,2.104,1.3,.004,0,.008,0,.012,0,.584,0,1.132-.333,1.628-.99l.142-.189,.102,.213c.004,.007,.373,.756,.989,.794,.496,.031,1.052-.411,1.616-1.278,.043-.067,.132-.086,.199-.042,.067,.043,.086,.133,.042,.199-.633,.974-1.265,1.447-1.877,1.408-.563-.036-.942-.495-1.117-.764-.52,.622-1.099,.936-1.724,.936Z"/>
    <path class="cls-1" d="M26.237,18.924s-2.544,2.245-5.064,5.191-5.292,4.876-5.292,4.876c-.216-.526-1.62-1.508-1.62-1.508,0,0-3.132-2.14-5.184-3.823-1.179-.968-2.346-2.166-3.126-3.012-.292-.016-1.065-.057-2.006-.109,4.692,6.97,11.972,8.803,11.972,8.803,.864-.14,3.276-1.859,5.076-3.262s4.752-4.525,5.94-5.893c.601-.692,.944-1.42,1.136-1.97-1.109,.382-1.832,.707-1.832,.707Z"/>
  </g>
</svg>
