<?xml version="1.0" encoding="UTF-8"?>
<svg id="_Слой_2" data-name="Слой 2" xmlns="http://www.w3.org/2000/svg" viewBox="0 0 22 12">
  <g id="Layer_1" data-name="Layer 1">
    <path fill="currentColor" d="M17.553,12c-.283,0-.858-.062-1.522-.481-.471-.293-.897-.737-1.308-1.167-.321-.335-.859-.896-1.061-.896-.197,.057-.353,.701-.349,1.195,.003,.086,0,.589-.343,.924-.312,.305-.798,.369-.892,.379l-1.412,.005c-.709,0-3.196-.166-5.447-2.3C2.525,7.101,.207,2.198,.11,1.99-.035,1.639-.072,1.179,.221,.862c.287-.314,.793-.359,.997-.365l2.994-.018,.084,.006c.067,.011,.416,.072,.702,.266,.285,.188,.433,.496,.459,.556,.007,.016,.476,1.09,1.082,2.044,.962,1.515,1.39,1.869,1.542,1.951,.138-.318,.203-1.294,.137-2.186,0-.375-.074-.836-.185-.973-.082-.102-.312-.193-.57-.224l-.529-.526c-.07-.501,.466-.934,.843-1.101,.54-.241,1.314-.291,2.308-.291l.521,.004c.906,.009,1.189,.062,1.576,.145,1.248,.275,1.203,1.317,1.149,2.522-.015,.353-.034,.762-.034,1.234,0,.115-.004,.238-.008,.365-.009,.289-.023,.79,.068,.993,.161-.11,.625-.506,1.519-1.891,.574-.887,1.027-1.933,1.112-2.134h0c.133-.328,.446-.717,1.183-.721l3.134-.018c.009-.002,.126-.012,.276-.012,.719,0,1.171,.219,1.343,.65,.197,.495,.124,1.262-1.726,3.507-.271,.329-.511,.612-.72,.858-.438,.516-.892,1.05-.907,1.215,.039,.129,.485,.506,.918,.872,1.122,.95,1.854,1.724,2.224,2.34,.383,.578,.315,1.013,.189,1.277-.311,.658-1.201,.741-1.376,.75l-2.779,.036c-.04,.005-.106,.009-.193,.009Zm-3.891-3.686c.659,0,1.233,.599,1.841,1.232,.364,.381,.741,.774,1.097,.995,.533,.335,.965,.321,1.025,.314l.076-.007,2.79-.036c.125-.009,.301-.056,.393-.104-.013-.03-.035-.072-.072-.127-.329-.547-1.018-1.263-1.97-2.07-.868-.733-1.321-1.116-1.368-1.709-.048-.613,.362-1.096,1.178-2.058,.205-.242,.443-.522,.709-.844,1.143-1.387,1.435-2.01,1.509-2.251-.125-.022-.475-.016-.497-.014l-3.198,.021c-.14,0-.183,.027-.183,.027-.129,.315-.595,1.38-1.205,2.322-1.39,2.147-2.042,2.437-2.498,2.437-.15,0-.29-.038-.417-.113-.735-.433-.706-1.397-.685-2.099,.004-.113,.007-.225,.007-.328,0-.492,.018-.919,.035-1.286,.056-1.279,.012-1.288-.278-1.352-.3-.065-.517-.112-1.361-.121l-.508-.004c-.458,0-.985,.011-1.398,.075,.067,.056,.132,.12,.19,.191,.431,.536,.443,1.486,.441,1.671,.095,1.253,.045,2.891-.746,3.284-.14,.07-.287,.104-.438,.104-.679,0-1.359-.674-2.511-2.488-.656-1.031-1.144-2.15-1.164-2.198-.008-.016-.04-.059-.055-.072-.061-.041-.171-.074-.235-.088l-2.934,.018c-.015,0-.033,.002-.051,.004,.433,.905,2.512,5.02,4.78,7.172,2.009,1.905,4.272,2.002,4.705,2.002l1.357-.002c.034-.008,.16-.047,.197-.076-.014,.014-.007-.04-.007-.074-.002-.202,.009-1.976,1.157-2.31,.092-.026,.19-.04,.29-.04Z"/>
  </g>
</svg>
